<svg width="40" height="40" viewBox="0 0 40 40" fill="none" xmlns="http://www.w3.org/2000/svg">
<circle cx="20" cy="20" r="20" fill="#FEE500"/>
<path d="M20.0578 9.65259C13.8354 9.65259 8.81732 13.667 8.81732 18.5406C8.81732 21.704 10.9048 24.4739 14.0361 26.0556L12.9763 30.0139C12.9563 30.0733 12.9532 30.1369 12.9674 30.1979C12.9816 30.2589 13.0125 30.3147 13.0566 30.3591C13.1209 30.4158 13.2037 30.4472 13.2894 30.4474C13.3605 30.4417 13.428 30.4136 13.4821 30.3672L18.0426 27.2921C18.7157 27.385 19.3943 27.4333 20.0739 27.4366C26.2883 27.4366 31.3144 23.4222 31.3144 18.5406C31.3144 13.659 26.2722 9.65259 20.0578 9.65259Z" fill="#392020"/>
<path d="M12.7512 17.1355H11.5227C11.3705 17.1399 11.2201 17.1009 11.0892 17.0231C11.0311 16.9866 10.9811 16.9386 10.9424 16.8819C10.9037 16.8253 10.8771 16.7612 10.8644 16.6938C10.8605 16.6511 10.8605 16.6082 10.8644 16.5655C10.8606 16.4855 10.8761 16.4058 10.9096 16.3331C10.9432 16.2604 10.9937 16.1969 11.0571 16.1479C11.197 16.0466 11.366 15.993 11.5388 15.9953H15.2401C15.3936 15.9899 15.545 16.032 15.6737 16.1158C15.7332 16.1506 15.7842 16.1982 15.8231 16.2552C15.862 16.3121 15.8877 16.3769 15.8985 16.445C15.9024 16.485 15.9024 16.5254 15.8985 16.5655C15.9023 16.6466 15.8868 16.7274 15.8533 16.8014C15.8198 16.8753 15.7693 16.9403 15.7058 16.9909C15.5693 17.0922 15.4019 17.1433 15.2321 17.1355H14.0438V21.3587C14.0487 21.4487 14.0347 21.5386 14.0029 21.6229C13.9712 21.7072 13.9222 21.7841 13.8592 21.8485C13.7987 21.91 13.7261 21.9583 13.6459 21.9901C13.5657 22.0219 13.4797 22.0365 13.3935 22.0331C13.2427 22.0374 13.0951 21.9892 12.976 21.8967C12.8626 21.8063 12.7856 21.6779 12.7592 21.5353C12.7513 21.4767 12.7513 21.4173 12.7592 21.3587L12.7512 17.1355Z" fill="#FEE500"/>
<path d="M16.2529 16.3085C16.2882 16.1763 16.3711 16.0619 16.4857 15.9873C16.6078 15.9181 16.747 15.8847 16.8872 15.8909H17.1923C17.341 15.8856 17.4884 15.9217 17.6178 15.9953C17.7549 16.0875 17.8524 16.228 17.8908 16.3887L19.4966 20.9251C19.5382 21.0434 19.573 21.1641 19.6009 21.2865C19.6037 21.3373 19.6037 21.3881 19.6009 21.439C19.6037 21.5172 19.5893 21.5951 19.5587 21.6672C19.5282 21.7393 19.4824 21.8039 19.4243 21.8565C19.3681 21.9141 19.3005 21.9596 19.2259 21.99C19.1513 22.0204 19.0713 22.035 18.9907 22.0331C18.8669 22.0454 18.7425 22.0157 18.6377 21.9487C18.5328 21.8817 18.4535 21.7813 18.4127 21.6638L18.0754 20.6762H15.9638L15.6266 21.6638C15.5867 21.7837 15.5065 21.886 15.3996 21.9533C15.2928 22.0207 15.1658 22.0488 15.0405 22.0331C14.9047 22.0366 14.7718 21.9942 14.6632 21.9126C14.5573 21.8285 14.4859 21.7086 14.4624 21.5755C14.4582 21.5301 14.4582 21.4844 14.4624 21.439C14.4486 21.3593 14.4486 21.2778 14.4624 21.1981C14.4624 21.1098 14.5186 21.0134 14.5507 20.9251L16.2529 16.3085ZM17.0558 17.3603L16.293 19.769H17.8105L17.0558 17.3603Z" fill="#FEE500"/>
<path d="M19.7848 16.5656C19.7767 16.3854 19.8402 16.2093 19.9614 16.0758C20.0231 16.0136 20.0971 15.965 20.1787 15.9332C20.2603 15.9014 20.3477 15.887 20.4352 15.891C20.5856 15.8893 20.7323 15.9373 20.8527 16.0276C20.9642 16.1218 21.0382 16.2528 21.0614 16.3969C21.0693 16.4528 21.0693 16.5096 21.0614 16.5656V20.7888H23.2694C23.4224 20.7868 23.5728 20.8285 23.7029 20.9091C23.7614 20.9452 23.8116 20.9932 23.8503 21.0499C23.8891 21.1066 23.9154 21.1708 23.9277 21.2383C23.9277 21.2383 23.9277 21.3187 23.9277 21.3588C23.9316 21.4388 23.916 21.5184 23.8825 21.5911C23.8489 21.6638 23.7984 21.7273 23.735 21.7763C23.5951 21.8777 23.4261 21.9311 23.2533 21.9288H20.5395C20.3667 21.9399 20.1949 21.895 20.0498 21.8004C19.92 21.7034 19.8335 21.5592 19.8089 21.399C19.803 21.3108 19.803 21.2222 19.8089 21.134L19.7848 16.5656Z" fill="#FEE500"/>
<path d="M24.0724 16.5656C24.0676 16.3859 24.1307 16.2111 24.2491 16.0758C24.3694 15.9665 24.5238 15.9019 24.6861 15.8931C24.8485 15.8844 25.0089 15.9319 25.1403 16.0276C25.2542 16.121 25.3311 16.2519 25.3571 16.3969C25.361 16.453 25.361 16.5095 25.3571 16.5656V18.5326L27.3884 16.1882C27.4666 16.1082 27.5498 16.0332 27.6373 15.9634C27.7197 15.9143 27.8143 15.8892 27.9103 15.8911C28.0506 15.8903 28.1878 15.9324 28.3037 16.0115C28.3583 16.0483 28.4049 16.0957 28.4408 16.1509C28.4766 16.2061 28.501 16.2679 28.5124 16.3327C28.5157 16.3486 28.5157 16.365 28.5124 16.3809C28.5085 16.3995 28.5085 16.4186 28.5124 16.4371C28.5122 16.5216 28.49 16.6046 28.4482 16.678C28.4056 16.7557 28.3544 16.8284 28.2957 16.8947L26.9628 18.356L28.5686 20.845V20.9252C28.652 21.0403 28.717 21.1677 28.7613 21.3027V21.3428C28.7706 21.4358 28.7572 21.5297 28.7222 21.6164C28.6873 21.7031 28.6318 21.78 28.5606 21.8406C28.4267 21.9418 28.2628 21.9955 28.0949 21.9932C27.9834 21.9977 27.8726 21.9728 27.7738 21.9208C27.6668 21.8491 27.5787 21.7527 27.5168 21.6398L26.0235 19.2312L25.3089 19.9779V21.3187C25.3137 21.4983 25.2506 21.6732 25.1323 21.8084C25.0688 21.8704 24.9933 21.9189 24.9105 21.9506C24.8276 21.9824 24.7392 21.9969 24.6505 21.9932C24.5024 21.9963 24.3577 21.948 24.241 21.8566C24.1276 21.7662 24.0507 21.638 24.0243 21.4954C24.0163 21.4368 24.0163 21.3773 24.0243 21.3187L24.0724 16.5656Z" fill="#FEE500"/>
</svg>
